<svg xmlns="http://www.w3.org/2000/svg" xmlns:xlink="http://www.w3.org/1999/xlink" width="500" zoomAndPan="magnify" viewBox="0 0 375 374.999991" height="500" preserveAspectRatio="xMidYMid meet" version="1.0"><defs><g/><clipPath id="510082ff40"><path d="M 9.757812 87.441406 L 222 87.441406 L 222 287.691406 L 9.757812 287.691406 Z M 9.757812 87.441406 " clip-rule="nonzero"/></clipPath></defs><g clip-path="url(#510082ff40)"><path fill="#004aad" d="M 55.675781 96.410156 C 54.683594 100.109375 56.535156 103.273438 60.039062 103.84375 L 103.535156 110.933594 C 103.824219 110.988281 103.667969 111.421875 103.363281 111.421875 L 30.617188 111.421875 C 29.492188 111.421875 28.824219 113.011719 29.808594 113.34375 L 46.539062 119.046875 C 48.207031 119.617188 49 121.320312 48.488281 123.226562 L 46.960938 128.941406 C 46.007812 132.488281 48.113281 135.371094 51.667969 135.371094 L 97.089844 135.371094 C 98.867188 135.371094 99.921875 136.816406 99.441406 138.59375 L 96.78125 148.527344 C 95.757812 152.347656 97.339844 155.742188 100.683594 156.882812 L 117.414062 162.582031 C 117.898438 162.75 117.566406 163.546875 117.007812 163.546875 L 71.726562 163.546875 C 70.601562 163.546875 69.9375 165.128906 70.921875 165.457031 L 88.480469 171.457031 C 89.652344 171.855469 90.214844 173.039062 89.851562 174.394531 C 89.148438 177.015625 90.390625 179.292969 92.820312 179.828125 L 124.566406 186.832031 C 124.933594 186.914062 124.722656 187.488281 124.324219 187.488281 L 10.375 187.488281 C 9.957031 187.488281 9.757812 188.109375 10.164062 188.148438 L 80.933594 195.730469 C 82.695312 195.929688 83.667969 197.460938 83.179688 199.289062 L 69.984375 248.535156 C 68.984375 252.269531 70.75 255.515625 74.203125 256.277344 L 104.183594 262.890625 C 104.554688 262.972656 104.347656 263.546875 103.945312 263.546875 L 17.464844 263.546875 C 16.847656 263.546875 16.539062 264.441406 17.121094 264.539062 L 60.617188 271.628906 C 62.371094 271.917969 63.292969 273.5 62.800781 275.347656 L 61.269531 281.054688 C 60.316406 284.613281 62.425781 287.496094 65.976562 287.496094 L 108.050781 287.496094 C 111.597656 287.496094 115.246094 284.613281 116.199219 281.054688 L 154.371094 138.59375 C 154.851562 136.816406 156.671875 135.371094 158.453125 135.371094 L 203.597656 135.371094 C 207.148438 135.371094 210.796875 132.488281 211.75 128.941406 L 221.132812 93.917969 C 222.085938 90.363281 219.976562 87.488281 216.429688 87.488281 L 64.496094 87.488281 C 60.941406 87.488281 57.296875 90.363281 56.339844 93.917969 L 55.675781 96.410156 " fill-opacity="1" fill-rule="nonzero"/></g><g fill="#004aad" fill-opacity="1"><g transform="translate(134.349133, 229.047206)"><g><path d="M 47.859375 -0.921875 C 47.960938 -0.710938 47.9375 -0.503906 47.78125 -0.296875 C 47.632812 -0.0976562 47.429688 0 47.171875 0 L 36.65625 0 C 36.300781 0 36.070312 -0.148438 35.96875 -0.453125 L 23.9375 -34.453125 L 12.046875 -0.453125 C 11.992188 -0.148438 11.738281 0 11.28125 0 L 0.84375 0 C 0.488281 0 0.242188 -0.0976562 0.109375 -0.296875 C -0.015625 -0.503906 -0.0234375 -0.710938 0.078125 -0.921875 L 23.171875 -60.515625 C 23.273438 -60.816406 23.53125 -60.96875 23.9375 -60.96875 C 24.34375 -60.96875 24.59375 -60.816406 24.6875 -60.515625 Z M 47.859375 -0.921875 "/></g></g></g><g fill="#004aad" fill-opacity="1"><g transform="translate(184.650931, 229.047206)"><g><path d="M 32.921875 -11.359375 C 33.484375 -11.359375 33.765625 -11.101562 33.765625 -10.59375 L 33.765625 -0.6875 C 33.765625 -0.226562 33.484375 0 32.921875 0 L 0.84375 0 C 0.28125 0 0 -0.226562 0 -0.6875 L 0 -11.359375 Z M 11.65625 -23.015625 L 0 -23.015625 L 0 -60.296875 C 0 -60.742188 0.28125 -60.96875 0.84375 -60.96875 L 10.90625 -60.96875 C 11.40625 -60.96875 11.65625 -60.742188 11.65625 -60.296875 Z M 11.65625 -23.015625 "/></g></g></g><g fill="#004aad" fill-opacity="1"><g transform="translate(220.167049, 229.047206)"><g><path d="M 28.96875 -11.359375 L 28.96875 0 L 0.84375 0 C 0.28125 0 0 -0.226562 0 -0.6875 L 0 -60.296875 C 0 -60.742188 0.28125 -60.96875 0.84375 -60.96875 L 28.96875 -60.96875 L 28.96875 -49.921875 L 11.65625 -49.921875 L 11.65625 -36.125 L 35.59375 -36.125 C 36.15625 -36.125 36.4375 -35.894531 36.4375 -35.4375 L 36.4375 -25.765625 C 36.4375 -25.304688 36.15625 -25.078125 35.59375 -25.078125 L 11.65625 -25.078125 L 11.65625 -11.359375 Z M 28.96875 -11.359375 "/></g></g></g><g fill="#004aad" fill-opacity="1"><g transform="translate(258.426898, 229.047206)"><g><path d="M 50.453125 -60.96875 C 51.015625 -60.96875 51.296875 -60.742188 51.296875 -60.296875 L 51.296875 -0.6875 C 51.296875 -0.226562 51.015625 0 50.453125 0 L 40.390625 0 C 40.335938 0 40.222656 -0.0234375 40.046875 -0.078125 C 39.867188 -0.128906 39.753906 -0.179688 39.703125 -0.234375 L 11.65625 -40.390625 L 11.65625 -14.640625 L 0 -14.640625 L 0 -60.296875 C 0 -60.742188 0.253906 -60.96875 0.765625 -60.96875 L 10.90625 -60.96875 C 11 -60.96875 11.125 -60.957031 11.28125 -60.9375 C 11.4375 -60.914062 11.535156 -60.851562 11.578125 -60.75 L 39.703125 -20.578125 L 39.703125 -60.296875 C 39.703125 -60.742188 40.007812 -60.96875 40.625 -60.96875 Z M 50.453125 -60.96875 "/></g></g></g><g fill="#004aad" fill-opacity="1"><g transform="translate(312.310786, 229.047206)"><g><path d="M 12.578125 -38.875 L 24.15625 -38.875 L 24.15625 -0.6875 C 24.15625 -0.226562 23.851562 0 23.25 0 L 13.421875 0 C 12.859375 0 12.578125 -0.226562 12.578125 -0.6875 Z M 0.84375 -50.53125 C 0.28125 -50.53125 0 -50.757812 0 -51.21875 L 0 -60.296875 C 0 -60.742188 0.28125 -60.96875 0.84375 -60.96875 L 35.828125 -60.96875 C 36.378906 -60.96875 36.65625 -60.742188 36.65625 -60.296875 L 36.65625 -51.21875 C 36.65625 -50.757812 36.378906 -50.53125 35.828125 -50.53125 Z M 0.84375 -50.53125 "/></g></g></g></svg>